<?xml version="1.0" standalone="no"?>
<!DOCTYPE svg PUBLIC "-//W3C//DTD SVG 20010904//EN"
 "http://www.w3.org/TR/2001/REC-SVG-20010904/DTD/svg10.dtd">
<svg version="1.0" xmlns="http://www.w3.org/2000/svg"
 width="130.000000pt" height="130.000000pt" viewBox="0 0 130.000000 130.000000"
 preserveAspectRatio="xMidYMid meet">

<g transform="translate(0.000000,130.000000) scale(0.100000,-0.100000)"
fill="#FFFFFF" stroke="none">
<path d="M286 1074 c4 -72 3 -71 -21 34 -6 26 -14 27 -60 8 l-35 -15 20 -43
c11 -24 20 -54 20 -68 0 -17 -8 -7 -24 33 -14 33 -28 62 -31 65 -11 11 -96
-89 -118 -138 -28 -64 -35 -206 -13 -263 32 -81 102 -137 172 -137 35 0 49 6
78 34 31 29 36 39 36 81 0 41 -5 51 -37 84 l-38 36 -3 -47 c-3 -51 -7 -54 -45
-37 -72 33 -54 113 41 192 53 43 116 33 172 -29 22 -23 22 -26 5 -19 -113 46
-169 52 -182 19 -6 -17 53 -85 114 -132 42 -32 43 -35 43 -90 0 -65 19 -112
78 -199 22 -32 43 -74 47 -93 27 -125 77 -190 145 -190 68 0 118 65 145 190 4
19 25 61 47 93 59 87 78 134 78 199 0 55 1 58 43 90 51 39 117 111 117 127 0
35 -91 32 -162 -5 -34 -17 -36 -5 -5 23 56 51 109 57 159 16 95 -79 113 -159
41 -192 -38 -17 -42 -14 -45 37 l-3 47 -37 -36 c-33 -33 -38 -43 -38 -84 0
-42 5 -52 36 -81 40 -38 93 -45 143 -20 40 21 97 88 111 131 18 54 8 198 -17
255 -22 49 -107 149 -118 138 -3 -3 -17 -32 -31 -65 -16 -40 -24 -50 -24 -33
0 14 9 44 20 68 l20 43 -35 15 c-46 19 -54 18 -60 -8 -24 -105 -25 -106 -21
-34 l4 68 -49 -4 c-27 -3 -52 -8 -55 -11 -4 -3 3 -34 14 -69 17 -52 17 -59 4
-39 -10 13 -22 38 -28 54 -14 40 -23 42 -59 13 l-29 -24 31 -50 c36 -59 20
-61 -18 -2 l-26 39 -30 -32 c-16 -18 -42 -49 -57 -69 -23 -33 -32 -38 -66 -38
-34 0 -43 5 -66 38 -15 20 -41 51 -57 69 l-30 32 -26 -39 c-38 -59 -54 -57
-18 2 l31 50 -29 24 c-36 29 -45 27 -59 -13 -6 -16 -18 -41 -28 -54 -13 -20
-13 -13 4 39 11 35 18 66 14 69 -3 3 -28 8 -55 11 l-49 4 4 -68z m72 -249 c43
-20 52 -29 52 -50 0 -39 -38 -29 -97 28 -56 53 -39 61 45 22z m662 17 c0 -11
-60 -67 -87 -81 -33 -17 -43 -13 -43 14 0 21 9 30 53 50 54 26 77 31 77 17z
m-556 -285 c20 -54 22 -94 3 -78 -21 17 -50 88 -44 105 11 27 24 18 41 -27z
m413 27 c6 -17 -23 -88 -44 -105 -19 -16 -17 24 3 78 17 45 30 54 41 27z
m-263 -370 c4 -10 1 -14 -6 -12 -15 5 -23 28 -10 28 5 0 13 -7 16 -16z m94 4
c-2 -6 -10 -14 -16 -16 -7 -2 -10 2 -6 12 7 18 28 22 22 4z"/>
</g>
</svg>
